<svg xmlns="http://www.w3.org/2000/svg" xmlns:osb="http://www.openswatchbook.org/uri/2009/osb" xmlns:svg="http://www.w3.org/2000/svg" id="svg7384" width="16" height="16" version="1.1"><metadata id="metadata90"/><title id="title9167">Gnome Symbolic Icon Theme</title><defs id="defs7386"><linearGradient id="linearGradient7212" osb:paint="solid"><stop id="stop7214" offset="0" stop-color="#000" stop-opacity="1"/></linearGradient></defs><g id="layer9" display="inline" transform="translate(-522.99999,124.99988)"><path id="rect12952" fill="#bebebe" fill-opacity="1" fill-rule="nonzero" stroke="none" stroke-width="1" d="m 531.0002,-124.92187 c -0.25108,0 -0.50701,0.0907 -0.70599,0.27625 l -2.20026,2.05187 1.75,1.75 c 0.19673,-0.0948 0.42325,-0.15625 0.65625,-0.15625 0.82843,0 1.5,0.67157 1.5,1.5 0,0.233 -0.0614,0.45952 -0.15625,0.65625 l 1.44757,1.44757 c 0.19673,-0.0948 0.42325,-0.15625 0.65625,-0.15625 0.82843,0 1.5,0.67157 1.5,1.5 0,0.82843 -0.67157,1.5 -1.5,1.5 -0.82843,0 -1.5,-0.67157 -1.5,-1.5 0,-0.22264 0.0693,-0.43501 0.15625,-0.625 l -1.47882,-1.47882 c -0.0427,0.0196 -0.0802,0.0469 -0.125,0.0625 l 0,3.1875 c 0.58641,0.20384 1,0.75041 1,1.40625 0,0.82843 -0.67157,1.5 -1.5,1.5 -0.82843,0 -1.5,-0.67157 -1.5,-1.5 0,-0.65584 0.41359,-1.20241 1,-1.40625 l 0,-3.1875 c -0.58641,-0.20384 -1,-0.75041 -1,-1.40625 0,-0.21746 0.0418,-0.43846 0.125,-0.625 l -1.75,-1.75 -4.01812,4.16651 c -0.37775,0.3917 -0.38479,1.0272 0,1.41198 l 6.93713,6.93713 c 0.38478,0.38479 1.0272,0.38479 1.41198,0 l 6.93713,-6.93713 c 0.38479,-0.38478 0.38479,-1.02719 0,-1.41198 l -6.93713,-6.93713 c -0.19239,-0.19239 -0.45491,-0.27625 -0.70599,-0.27625 z" color="#000" display="inline" enable-background="new" overflow="visible" visibility="visible" style="marker:none"/></g></svg>